nColumns=19
nRows=80
DataType=double
version=3
OpenSimVersion=4.1
endheader
time	ground_force_calcn_r_vx	ground_force_calcn_r_vy	ground_force_calcn_r_vz	ground_force_calcn_r_px	ground_force_calcn_r_py	ground_force_calcn_r_pz	ground_force_calcn_r_mx	ground_force_calcn_r_my	ground_force_calcn_r_mz	ground_force_calcn_l_vx	ground_force_calcn_l_vy	ground_force_calcn_l_vz	ground_force_calcn_l_px	ground_force_calcn_l_py	ground_force_calcn_l_pz	ground_force_calcn_l_mx	ground_force_calcn_l_my	ground_force_calcn_l_mz
0	-18.2736	87.4776	4.43987	0.119881	0	-0.219103	-0.100388	0.480569	0.024391	0	0	0	0	0	0	0	0	0
0.01	-25.8677	121.881	5.74288	0.125954	0	-0.219148	-0.0997367	0.469932	0.0221425	0	0	0	0	0	0	0	0	0
0.02	-34.7514	161.728	7.13619	0.13157	0	-0.219114	-0.097946	0.455826	0.0201132	0	0	0	0	0	0	0	0	0
0.03	-44.8158	206.374	8.55249	0.136289	0	-0.218981	-0.0947321	0.436235	0.0180783	0	0	0	0	0	0	0	0	0
0.04	-55.8361	254.778	9.88555	0.140521	0	-0.218773	-0.0897685	0.40961	0.0158931	0	0	0	0	0	0	0	0	0
0.05	-67.4411	305.637	11.0005	0.144469	0	-0.218499	-0.082689	0.37474	0.0134877	0	0	0	0	0	0	0	0	0
0.06	-79.1342	357.413	11.7486	0.148233	0	-0.218155	-0.0729394	0.329434	0.0108289	0	0	0	0	0	0	0	0	0
0.07	-90.3508	408.33	11.9843	0.151852	0	-0.217732	-0.0596898	0.269761	0.00791736	0	0	0	0	0	0	0	0	0
0.08	-100.496	456.499	11.5784	0.155332	0	-0.217227	-0.0421846	0.191623	0.00486024	0	0	0	0	0	0	0	0	0
0.09	-108.996	500.118	10.4404	0.158668	0	-0.216634	-0.0201912	0.0926451	0.00193405	0	0	0	0	0	0	0	0	0
0.1	-115.405	537.702	8.54743	0.161858	0	-0.215954	0.00574311	-0.0267586	-0.000425361	0	0	0	0	0	0	0	0	0
0.11	-119.469	568.274	5.96128	0.164915	0	-0.215192	0.0342771	-0.163045	-0.00171037	0	0	0	0	0	0	0	0	0
0.12	-121.128	591.396	2.83313	0.167861	0	-0.214357	0.0634403	-0.309742	-0.00148385	0	0	0	0	0	0	0	0	0
0.13	-120.474	607.067	-0.611291	0.170723	0	-0.213467	0.0909595	-0.458345	0.000461535	0	0	0	0	0	0	0	0	0
0.14	-117.709	615.604	-4.11513	0.173529	0	-0.212537	0.114864	-0.600725	0.00401567	0	0	0	0	0	0	0	0	0
0.15	-113.116	617.546	-7.43823	0.17631	0	-0.211582	0.133902	-0.73103	0.00880512	0	0	0	0	0	0	0	0	0
0.16	-107.019	613.572	-10.3837	0.179101	0	-0.210613	0.14752	-0.845777	0.0143134	0	0	0	0	0	0	0	0	0
0.17	-99.7717	604.466	-12.8188	0.18194	0	-0.209637	0.155814	-0.943997	0.0200192	0	0	0	0	0	0	0	0	0
0.18	-91.7327	591.095	-14.6846	0.18487	0	-0.208656	0.159364	-1.02689	0.025511	0	0	0	0	0	0	0	0	0
0.19	-83.2501	574.383	-15.9888	0.187939	0	-0.207672	0.15898	-1.09688	0.0305332	0	0	0	0	0	0	0	0	0
0.2	-74.6449	555.27	-16.79	0.191199	0	-0.206681	0.155507	-1.15679	0.0349785	0	0	0	0	0	0	0	0	0
0.21	-66.1975	534.684	-17.1779	0.194696	0	-0.205682	0.149698	-1.20913	0.0388458	0	0	0	0	0	0	0	0	0
0.22	-58.1368	513.516	-17.2518	0.19848	0	-0.204678	0.142176	-1.25583	0.0421902	0	0	0	0	0	0	0	0	0
0.23	-50.6356	492.585	-17.1017	0.202584	0	-0.203675	0.133466	-1.29836	0.045077	0	0	0	0	0	0	0	0	0
0.24	-43.8078	472.622	-16.7952	0.207027	0	-0.20269	0.124053	-1.33835	0.0475598	0	0	0	0	0	0	0	0	0
0.25	-37.7072	454.257	-16.3774	0.211799	0	-0.201746	0.114393	-1.37809	0.0496844	0	0	0	0	0	0	0	0	0
0.26	-32.3307	438.008	-15.881	0.216862	0	-0.200871	0.104859	-1.4206	0.0515074	0	0	0	0	0	0	0	0	0
0.27	-27.6273	424.274	-15.3388	0.222146	0	-0.200094	0.0956653	-1.46914	0.053114	0	0	0	0	0	0	0	0	0
0.28	-23.5109	413.33	-14.7907	0.227553	0	-0.19944	0.0868237	-1.52639	0.0546208	0	0	0	0	0	0	0	0	0
0.29	-19.873	405.329	-14.283	0.232975	0	-0.198931	0.078135	-1.59364	0.0561564	0	0	0	0	0	0	0	0	0
0.3	-16.5938	400.327	-13.863	0.2383	0	-0.198576	0.0692354	-1.67031	0.0578414	0	0	0	0	0	0	0	0	0
0.31	-13.5495	398.296	-13.5736	0.243433	0	-0.198379	0.0596674	-1.75395	0.0597732	0	0	0	0	0	0	0	0	0
0.32	-10.6169	399.145	-13.4476	0.248296	0	-0.19833	0.0489618	-1.84074	0.0620165	0	0	0	0	0	0	0	0	0
0.33	-7.67615	402.733	-13.5059	0.252839	0	-0.198417	0.0367123	-1.92613	0.0645939	0	0	0	0	0	0	0	0	0
0.34	-4.61393	408.884	-13.7573	0.257039	0	-0.198619	0.022631	-2.00554	0.0674786	0	0	0	0	0	0	0	0	0
0.35	-1.32468	417.381	-14.2017	0.260894	0	-0.198911	0.00658477	-2.07474	0.0705945	0	0	0	0	0	0	0	0	0
0.36	2.28702	427.979	-14.8336	0.264422	0	-0.199269	-0.011381	-2.12977	0.0738173	0	0	0	0	0	0	0	0	0
0.37	6.30295	440.394	-15.645	0.267653	0	-0.199668	-0.0310104	-2.16673	0.076973	0	0	0	0	0	0	0	0	0
0.38	10.7876	454.312	-16.6245	0.270625	0	-0.200085	-0.0518042	-2.1817	0.0798342	0	0	0	0	0	0	0	0	0
0.39	15.7845	469.385	-17.756	0.273375	0	-0.200504	-0.0729993	-2.17079	0.082117	0	0	0	0	0	0	0	0	0
0.4	21.3128	485.223	-19.0151	0.275943	0	-0.200907	-0.0935828	-2.13058	0.0834939	0	0	0	0	0	0	0	0	0
0.41	27.3662	501.392	-20.3676	0.278366	0	-0.201286	-0.112355	-2.05852	0.0836214	0	0	0	0	0	0	0	0	0
0.42	33.9129	517.395	-21.7675	0.280672	0	-0.201634	-0.128038	-1.95342	0.0821833	0	0	0	0	0	0	0	0	0
0.43	40.8952	532.662	-23.1571	0.282892	0	-0.201948	-0.139419	-1.81594	0.0789464	0	0	0	0	0	0	0	0	0
0.44	48.2281	546.548	-24.4664	0.285045	0	-0.202228	-0.145509	-1.64899	0.0738174	0	0	0	0	0	0	0	0	0
0.45	55.7993	558.34	-25.6161	0.287151	0	-0.202475	-0.145696	-1.45787	0.0668855	0	0	0	0	0	0	0	0	0
0.46	63.4695	567.299	-26.5228	0.28922	0	-0.202694	-0.13984	-1.24991	0.0584367	0	0	0	0	0	0	0	0	0
0.47	71.0734	572.703	-27.1078	0.291263	0	-0.202889	-0.12827	-1.03358	0.0489228	0	0	0	0	0	0	0	0	0
0.48	78.4195	573.883	-27.3044	0.293284	0	-0.203065	-0.111725	-0.817618	0.0389009	-1.34642	31.7097	-4.64477	0.770851	0	-0.288356	-0.015547	0.366149	-0.0536328
0.49	85.2875	570.26	-27.062	0.295287	0	-0.203223	-0.0913019	-0.610474	0.0289704	-4.20429	53.0905	-4.99801	0.797219	0	-0.300914	-0.0341165	0.430812	-0.0405572
0.5	91.4308	561.369	-26.3486	0.297274	0	-0.203369	-0.0683999	-0.419963	0.0197116	-8.05806	79.4089	-5.2345	0.811908	0	-0.307191	-0.0468675	0.461859	-0.030445
0.51	96.5847	546.883	-25.1533	0.299249	0	-0.203505	-0.0446127	-0.252607	0.0116184	-13.0416	110.784	-5.2873	0.821713	0	-0.310927	-0.0564029	0.479124	-0.0228668
0.52	100.481	526.646	-23.4889	0.30122	0	-0.203634	-0.0216024	-0.113223	0.00504987	-19.2606	147.004	-5.07499	0.829082	0	-0.313423	-0.0641075	0.48929	-0.0168917
0.53	102.865	500.709	-21.395	0.303194	0	-0.203761	-0.000958096	-0.00466365	0.000199275	-26.7697	187.416	-4.50414	0.835142	0	-0.315248	-0.0706844	0.494865	-0.011893
0.54	103.512	469.36	-18.9397	0.305184	0	-0.203886	0.0160014	0.0725559	-0.00292778	-35.4881	230.973	-3.48435	0.840496	0	-0.316691	-0.0763311	0.496797	-0.00749445
0.55	102.253	433.15	-16.2199	0.307204	0	-0.204013	0.0284445	0.120492	-0.004512	-45.1074	276.466	-1.93991	0.845468	0	-0.317911	-0.0806354	0.494219	-0.00346785
0.56	99.0044	392.9	-13.3591	0.309273	0	-0.20414	0.0361586	0.143496	-0.00487903	-55.1769	322.636	0.169971	0.850231	0	-0.318995	-0.0827639	0.483946	0.000254952
0.57	93.8029	349.687	-10.4994	0.31141	0	-0.204267	0.0395424	0.14741	-0.00442602	-65.2189	368.122	2.83648	0.854876	0	-0.319994	-0.0817044	0.461172	0.00355346
0.58	86.8275	304.793	-7.78683	0.313648	0	-0.20439	0.0394305	0.138414	-0.00353619	-74.7608	411.502	5.9997	0.85945	0	-0.320937	-0.0763782	0.420404	0.00612949
0.59	78.3958	259.618	-5.35036	0.316025	0	-0.204505	0.0369253	0.122283	-0.00252008	-83.3486	451.441	9.5511	0.863972	0	-0.32184	-0.0658438	0.35663	0.00754519
0.6	68.942	215.571	-3.28045	0.318602	0	-0.204606	0.0331069	0.10352	-0.00157531	-90.5881	486.845	13.3475	0.868453	0	-0.322715	-0.0496858	0.267025	0.00732084
0.61	58.9644	173.95	-1.61556	0.321485	0	-0.204686	0.028848	0.085104	-0.000790404	-96.2019	516.968	17.2293	0.872905	0	-0.323567	-0.0282276	0.151689	0.00505543
0.62	48.9632	135.83	-0.342404	0.324853	0	-0.204741	0.0247175	0.0685696	-0.000172852	-100.051	541.444	21.0244	0.877345	0	-0.324399	-0.00239482	0.0129599	0.000503237
0.63	39.3862	101.984	0.587197	0.329045	0	-0.204759	0.0209069	0.054135	0.000311695	-102.126	560.246	24.5533	0.881795	0	-0.325212	0.026469	-0.145205	-0.00636376
0.64	30.5853	72.8454	1.23191	0.334721	0	-0.204723	0.0171233	0.0407828	0.000689693	-102.515	573.593	27.6475	0.886278	0	-0.326	0.0566167	-0.316782	-0.0152691
0.65	22.7916	48.5279	1.64651	0.343376	0	-0.204609	0.0122115	0.0260008	0.000882183	-101.378	581.847	30.1713	0.890813	0	-0.326762	0.0859451	-0.49327	-0.0255782
0.66	16.1163	28.8742	1.87877	0.359211	0	-0.20445	0.00234797	0.00420665	0.000273716	-98.9205	585.454	32.0426	0.895418	0	-0.327497	0.112215	-0.664136	-0.0363489
0.67	0	0	0	0	0	0	0	0	0	-95.3702	584.906	33.241	0.900107	0	-0.328209	0.133388	-0.818069	-0.0464919
0.68	0	0	0	0	0	0	0	0	0	-90.9602	580.716	33.8019	0.90489	0	-0.328904	0.147963	-0.94464	-0.0549849
0.69	0	0	0	0	0	0	0	0	0	-85.9164	573.424	33.8019	0.909776	0	-0.329592	0.155176	-1.03568	-0.0610506
0.7	0	0	0	0	0	0	0	0	0	-80.4494	563.595	33.3397	0.914768	0	-0.330279	0.155015	-1.08597	-0.0642409
0.71	0	0	0	0	0	0	0	0	0	-74.7459	551.815	32.5174	0.919864	0	-0.330972	0.148114	-1.09346	-0.0644356
0.72	0	0	0	0	0	0	0	0	0	-68.9646	538.682	31.4278	0.925057	0	-0.33167	0.135555	-1.05882	-0.0617734
0.73	0	0	0	0	0	0	0	0	0	-63.2339	524.791	30.1495	0.930328	0	-0.332372	0.118643	-0.98464	-0.056568
0.74	0	0	0	0	0	0	0	0	0	-57.6496	510.709	28.7488	0.935646	0	-0.333065	0.0987672	-0.874963	-0.0492534
0.75	0	0	0	0	0	0	0	0	0	-52.2757	496.958	27.2839	0.940971	0	-0.333742	0.0772909	-0.734764	-0.0403398
0.76	0	0	0	0	0	0	0	0	0	-47.1456	483.991	25.807	0.946253	0	-0.334386	0.0554914	-0.569668	-0.0303754
0.77	0	0	0	0	0	0	0	0	0	-42.2653	472.186	24.366	0.951432	0	-0.334986	0.0345281	-0.385746	-0.0199055
0.78	0	0	0	0	0	0	0	0	0	-37.6182	461.842	23.0044	0.956448	0	-0.335527	0.0154256	-0.189382	-0.00943313
0.79	0	0	0	0	0	0	0	0	0	-33.1693	453.182	21.76	0.961242	0	-0.335995	-0.000941282	0.0128605	0.000617509
